HIERARCHY
ROOT Hips
{
	OFFSET 0.053599 88.859886 3.107447
	CHANNELS 6 Xposition Yposition Zposition Zrotation Yrotation Xrotation 
	JOINT Spine
	{
		OFFSET -0.000000 8.814246 -2.080107
		CHANNELS 3 Zrotation Yrotation Xrotation
		JOINT Spine1
		{
			OFFSET 0.000000 8.844141 0.000000
			CHANNELS 3 Zrotation Yrotation Xrotation
			JOINT Spine2
			{
				OFFSET -0.000000 11.682268 0.000000
				CHANNELS 3 Zrotation Yrotation Xrotation
				JOINT Spine3
				{
					OFFSET 0.000000 11.746700 0.000000
					CHANNELS 3 Zrotation Yrotation Xrotation
					JOINT Neck
					{
						OFFSET -0.000000 17.658264 -0.000000
						CHANNELS 3 Zrotation Yrotation Xrotation
						JOINT Neck1
						{
							OFFSET -0.000000 5.101515 -0.000000
							CHANNELS 3 Zrotation Yrotation Xrotation
							JOINT Head
							{
								OFFSET 0.000000 5.101515 0.000000
								CHANNELS 3 Zrotation Yrotation Xrotation
								JOINT HeadEnd
								{
									OFFSET 0.000000 11.655085 0.000000
									CHANNELS 3 Zrotation Yrotation Xrotation
									End Site
									{
										OFFSET 0.000000 0.000000 0.000000
									}
								}
							}
						}
					}
					JOINT RightShoulder
					{
						OFFSET -2.625389 11.175210 0.000000
						CHANNELS 3 Zrotation Yrotation Xrotation
						JOINT RightArm
						{
							OFFSET -0.000000 10.434715 -0.000000
							CHANNELS 3 Zrotation Yrotation Xrotation
							JOINT RightForeArm
							{
								OFFSET -0.000000 29.628420 0.000000
								CHANNELS 3 Zrotation Yrotation Xrotation
								JOINT RightHand
								{
									OFFSET -0.000000 22.857611 0.000000
									CHANNELS 3 Zrotation Yrotation Xrotation
									JOINT RightHandThumb1
									{
										OFFSET -2.867323 3.959563 2.944291
										CHANNELS 3 Zrotation Yrotation Xrotation
										JOINT RightHandThumb2
										{
											OFFSET 0.000000 3.350399 0.000000
											CHANNELS 3 Zrotation Yrotation Xrotation
											JOINT RightHandThumb3
											{
												OFFSET 0.000000 3.756509 -0.000000
												CHANNELS 3 Zrotation Yrotation Xrotation
												JOINT RightHandThumb4
												{
													OFFSET 0.000000 3.147345 0.000000
													CHANNELS 3 Zrotation Yrotation Xrotation
													End Site
													{
														OFFSET 0.000000 0.000000 0.000000
													}
												}
											}
										}
									}
									JOINT RightHandIndex1
									{
										OFFSET -0.086752 10.030893 2.345280
										CHANNELS 3 Zrotation Yrotation Xrotation
										JOINT RightHandIndex2
										{
											OFFSET -0.000000 4.061090 0.000000
											CHANNELS 3 Zrotation Yrotation Xrotation
											JOINT RightHandIndex3
											{
												OFFSET -0.000000 3.248873 0.000000
												CHANNELS 3 Zrotation Yrotation Xrotation
												JOINT RightHandIndex4
												{
													OFFSET 0.000000 2.639709 -0.000000
													CHANNELS 3 Zrotation Yrotation Xrotation
													End Site
													{
														OFFSET 0.000000 0.000000 0.000000
													}
												}
											}
										}
									}
									JOINT RightHandMiddle1
									{
										OFFSET 0.104102 9.502952 0.006768
										CHANNELS 3 Zrotation Yrotation Xrotation
										JOINT RightHandMiddle2
										{
											OFFSET 0.000000 4.568727 0.000000
											CHANNELS 3 Zrotation Yrotation Xrotation
											JOINT RightHandMiddle3
											{
												OFFSET 0.000000 3.654981 -0.000000
												CHANNELS 3 Zrotation Yrotation Xrotation
												JOINT RightHandMiddle4
												{
													OFFSET -0.000000 2.741236 -0.000000
													CHANNELS 3 Zrotation Yrotation Xrotation
													End Site
													{
														OFFSET 0.000000 0.000000 0.000000
													}
												}
											}
										}
									}
									JOINT RightHandRing1
									{
										OFFSET 0.086752 8.921708 -2.267442
										CHANNELS 3 Zrotation Yrotation Xrotation
										JOINT RightHandRing2
										{
											OFFSET -0.000000 4.061090 0.000000
											CHANNELS 3 Zrotation Yrotation Xrotation
											JOINT RightHandRing3
											{
												OFFSET 0.000000 3.654981 -0.000000
												CHANNELS 3 Zrotation Yrotation Xrotation
												JOINT RightHandRing4
												{
													OFFSET 0.000000 2.741236 -0.000000
													CHANNELS 3 Zrotation Yrotation Xrotation
													End Site
													{
														OFFSET 0.000000 0.000000 0.000000
													}
												}
											}
										}
									}
									JOINT RightHandPinky1
									{
										OFFSET -0.173504 7.976997 -4.467199
										CHANNELS 3 Zrotation Yrotation Xrotation
										JOINT RightHandPinky2
										{
											OFFSET 0.000000 3.350399 -0.000000
											CHANNELS 3 Zrotation Yrotation Xrotation
											JOINT RightHandPinky3
											{
												OFFSET -0.000000 2.842763 0.000000
												CHANNELS 3 Zrotation Yrotation Xrotation
												JOINT RightHandPinky4
												{
													OFFSET -0.000000 2.639709 0.000000
													CHANNELS 3 Zrotation Yrotation Xrotation
													End Site
													{
														OFFSET 0.000000 0.000000 0.000000
													}
												}
											}
										}
									}
									JOINT RightForeArmEnd
									{
										OFFSET 0.000000 0.000000 0.000000
										CHANNELS 3 Zrotation Yrotation Xrotation
										End Site
										{
											OFFSET 0.000000 0.000000 0.000000
										}
									}
								}
								JOINT RightArmEnd
								{
									OFFSET 0.000000 0.000000 0.000000
									CHANNELS 3 Zrotation Yrotation Xrotation
									End Site
									{
										OFFSET 0.000000 0.000000 0.000000
									}
								}
							}
						}
					}
					JOINT LeftShoulder
					{
						OFFSET 2.625389 11.175210 0.000000
						CHANNELS 3 Zrotation Yrotation Xrotation
						JOINT LeftArm
						{
							OFFSET 0.000000 10.813635 -0.000000
							CHANNELS 3 Zrotation Yrotation Xrotation
							JOINT LeftForeArm
							{
								OFFSET 0.000000 28.724781 0.000000
								CHANNELS 3 Zrotation Yrotation Xrotation
								JOINT LeftHand
								{
									OFFSET 0.644384 25.716167 -0.328871
									CHANNELS 3 Zrotation Yrotation Xrotation
									JOINT LeftHandThumb1
									{
										OFFSET 2.867323 3.959563 2.944291
										CHANNELS 3 Zrotation Yrotation Xrotation
										JOINT LeftHandThumb2
										{
											OFFSET 0.000000 3.350399 0.000000
											CHANNELS 3 Zrotation Yrotation Xrotation
											JOINT LeftHandThumb3
											{
												OFFSET -0.000000 3.756509 0.000000
												CHANNELS 3 Zrotation Yrotation Xrotation
												JOINT LeftHandThumb4
												{
													OFFSET -0.000000 3.100000 0.000000
													CHANNELS 3 Zrotation Yrotation Xrotation
													End Site
													{
														OFFSET 0.000000 0.000000 0.000000
													}
												}
											}
										}
									}
									JOINT LeftHandIndex1
									{
										OFFSET 0.086752 10.030893 2.345280
										CHANNELS 3 Zrotation Yrotation Xrotation
										JOINT LeftHandIndex2
										{
											OFFSET -0.000000 4.061090 -0.000000
											CHANNELS 3 Zrotation Yrotation Xrotation
											JOINT LeftHandIndex3
											{
												OFFSET 0.000000 3.248873 -0.000000
												CHANNELS 3 Zrotation Yrotation Xrotation
												JOINT LeftHandIndex4
												{
													OFFSET 0.000000 2.639709 -0.000000
													CHANNELS 3 Zrotation Yrotation Xrotation
													End Site
													{
														OFFSET 0.000000 0.000000 0.000000
													}
												}
											}
										}
									}
									JOINT LeftHandMiddle1
									{
										OFFSET -0.104102 9.502952 0.006768
										CHANNELS 3 Zrotation Yrotation Xrotation
										JOINT LeftHandMiddle2
										{
											OFFSET -0.000000 4.568727 -0.000000
											CHANNELS 3 Zrotation Yrotation Xrotation
											JOINT LeftHandMiddle3
											{
												OFFSET 0.000000 3.654981 0.000000
												CHANNELS 3 Zrotation Yrotation Xrotation
												JOINT LeftHandMiddle4
												{
													OFFSET 0.000000 2.741236 -0.000000
													CHANNELS 3 Zrotation Yrotation Xrotation
													End Site
													{
														OFFSET 0.000000 0.000000 0.000000
													}
												}
											}
										}
									}
									JOINT LeftHandRing1
									{
										OFFSET -0.086752 8.921708 -2.267442
										CHANNELS 3 Zrotation Yrotation Xrotation
										JOINT LeftHandRing2
										{
											OFFSET 0.000000 4.061090 0.000000
											CHANNELS 3 Zrotation Yrotation Xrotation
											JOINT LeftHandRing3
											{
												OFFSET 0.000000 3.654981 0.000000
												CHANNELS 3 Zrotation Yrotation Xrotation
												JOINT LeftHandRing4
												{
													OFFSET 0.000000 2.741236 0.000000
													CHANNELS 3 Zrotation Yrotation Xrotation
													End Site
													{
														OFFSET 0.000000 0.000000 0.000000
													}
												}
											}
										}
									}
									JOINT LeftHandPinky1
									{
										OFFSET 0.173504 7.976997 -4.467199
										CHANNELS 3 Zrotation Yrotation Xrotation
										JOINT LeftHandPinky2
										{
											OFFSET -0.000000 3.350399 -0.000000
											CHANNELS 3 Zrotation Yrotation Xrotation
											JOINT LeftHandPinky3
											{
												OFFSET 0.000000 2.842763 0.000000
												CHANNELS 3 Zrotation Yrotation Xrotation
												JOINT LeftHandPinky4
												{
													OFFSET -0.000000 2.639709 -0.000000
													CHANNELS 3 Zrotation Yrotation Xrotation
													End Site
													{
														OFFSET 0.000000 0.000000 0.000000
													}
												}
											}
										}
									}
									JOINT LeftForeArmEnd
									{
										OFFSET 0.000000 0.000000 0.000000
										CHANNELS 3 Zrotation Yrotation Xrotation
										End Site
										{
											OFFSET 0.000000 0.000000 0.000000
										}
									}
								}
								JOINT LeftArmEnd
								{
									OFFSET 0.000000 0.000000 0.000000
									CHANNELS 3 Zrotation Yrotation Xrotation
									End Site
									{
										OFFSET 0.000000 0.000000 0.000000
									}
								}
							}
						}
					}
				}
			}
		}
	}
	JOINT RightUpLeg
	{
		OFFSET -11.289943 0.000000 0.000000
		CHANNELS 3 Zrotation Yrotation Xrotation
		JOINT RightLeg
		{
			OFFSET 0.000000 -38.200325 0.000000
			CHANNELS 3 Zrotation Yrotation Xrotation
			JOINT RightFoot
			{
				OFFSET -0.000000 -39.900856 -0.000000
				CHANNELS 3 Zrotation Yrotation Xrotation
				JOINT RightToeBase
				{
					OFFSET 0.000000 0.000000 15.261641
					CHANNELS 3 Zrotation Yrotation Xrotation
					JOINT RightToeBaseEnd
					{
						OFFSET 0.000000 0.000000 7.370709
						CHANNELS 3 Zrotation Yrotation Xrotation
						End Site
						{
							OFFSET 0.000000 0.000000 0.000000
						}
					}
				}
				JOINT RightLegEnd
				{
					OFFSET 0.000000 0.000000 0.000000
					CHANNELS 3 Zrotation Yrotation Xrotation
					End Site
					{
						OFFSET 0.000000 0.000000 0.000000
					}
				}
			}
			JOINT RightUpLegEnd
			{
				OFFSET 0.000000 0.000000 0.000000
				CHANNELS 3 Zrotation Yrotation Xrotation
				End Site
				{
					OFFSET 0.000000 0.000000 0.000000
				}
			}
		}
	}
	JOINT LeftUpLeg
	{
		OFFSET 11.315661 -0.000000 0.000000
		CHANNELS 3 Zrotation Yrotation Xrotation
		JOINT LeftLeg
		{
			OFFSET -0.000000 -38.200325 -0.000000
			CHANNELS 3 Zrotation Yrotation Xrotation
			JOINT LeftFoot
			{
				OFFSET 0.000000 -39.900856 -0.000000
				CHANNELS 3 Zrotation Yrotation Xrotation
				JOINT LeftToeBase
				{
					OFFSET -0.000000 -0.000000 15.261641
					CHANNELS 3 Zrotation Yrotation Xrotation
					JOINT LeftToeBaseEnd
					{
						OFFSET 0.000000 -0.000000 7.539996
						CHANNELS 3 Zrotation Yrotation Xrotation
						End Site
						{
							OFFSET 0.000000 0.000000 0.000000
						}
					}
				}
				JOINT LeftLegEnd
				{
					OFFSET 0.000000 0.000000 0.000000
					CHANNELS 3 Zrotation Yrotation Xrotation
					End Site
					{
						OFFSET 0.000000 0.000000 0.000000
					}
				}
			}
			JOINT LeftUpLegEnd
			{
				OFFSET 0.000000 0.000000 0.000000
				CHANNELS 3 Zrotation Yrotation Xrotation
				End Site
				{
					OFFSET 0.000000 0.000000 0.000000
				}
			}
		}
	}
}
MOTION
Frames: 5
Frame Time: 0.016667
0.053599 88.859886 3.107447 0.490481 0.055862 -6.497332 0.023754 -0.000539 5.886370 -1.012250 0.067046 0.861970 0.478071 -2.416792 3.829567 0.155030 -0.780500 1.929224 2.330515 0.848112 5.016849 0.371683 2.117863 -3.221864 -0.714533 -0.852149 -18.222401 0.000000 0.000000 0.000000 92.418694 -0.394880 9.707912 65.456573 -33.431271 5.091406 -0.130291 12.440493 22.353239 6.882370 13.743960 -6.458578 19.861429 30.097643 62.040974 -8.462701 -12.164348 -20.450144 -6.325801 -8.139122 -14.332924 0.000000 0.000000 0.000000 12.621688 -10.712396 0.231899 8.905269 0.376633 1.323778 8.902945 -0.111869 1.243825 0.000000 0.000000 0.000000 11.194713 -5.446730 -1.239449 7.889823 0.455857 0.481039 7.889222 -0.037052 0.412494 0.000000 0.000000 0.000000 10.912717 2.564455 -1.535874 7.825817 -0.947299 -0.611652 7.824722 0.070320 -0.477096 0.000000 0.000000 0.000000 9.631022 11.185607 -2.805182 7.161172 -1.900893 -1.652070 7.157181 0.085565 -1.400512 0.000000 0.000000 0.000000 0.000000 0.000000 0.000000 0.000000 0.000000 0.000000 -90.370071 0.051974 5.208683 -71.842018 19.306828 -7.574249 -0.664994 -8.642401 40.885647 -0.139946 -25.486511 -15.477552 -20.250540 -29.996990 61.691063 8.807010 12.918287 -21.553112 6.618044 8.635277 -15.110494 0.000000 0.000000 0.000000 -16.168392 -5.636370 -1.918335 -11.569428 0.324957 -1.715407 -11.569072 -0.164917 -1.615128 0.000000 0.000000 0.000000 -15.643335 -0.758781 -1.694552 -11.169063 0.440303 -0.678956 -11.168735 -0.058746 -0.582722 0.000000 0.000000 0.000000 -18.003109 7.607869 -1.025503 -12.703986 -0.874371 0.992852 -12.702737 0.099213 0.772902 0.000000 0.000000 0.000000 -18.852142 16.262062 -0.245862 -13.102126 -1.657223 2.980032 -13.096694 0.281077 2.526406 0.000000 0.000000 0.000000 0.000000 0.000000 0.000000 0.000000 0.000000 0.000000 -1.045058 -10.518975 11.869204 -0.078405 -0.635030 3.758801 -2.197730 -7.901679 18.681496 -0.890004 0.828132 -18.870453 0.000000 0.000000 0.000000 0.000000 0.000000 0.000000 0.000000 0.000000 0.000000 -1.784023 -6.543907 7.474547 0.053202 0.398207 7.545935 3.843466 -1.785134 17.966772 0.194973 -0.390531 -20.817129 0.000000 0.000000 0.000000 0.000000 0.000000 0.000000 0.000000 0.000000 0.000000 
0.112583 88.906860 2.909229 -0.274685 -0.301417 -7.321752 1.300728 -0.186797 6.645985 -0.985919 0.125304 2.678344 0.767964 -1.629329 1.556181 -0.888409 -0.174771 3.071926 1.340961 2.279487 3.141001 0.340434 2.946700 -3.806147 -1.039626 -0.572127 -18.440361 0.000000 0.000000 0.000000 92.999451 -0.452868 9.590429 65.026543 -32.126278 3.995137 -0.121072 13.043479 23.181999 6.816142 13.211495 -6.847601 19.883686 30.092764 62.068939 -8.437053 -12.093614 -20.456409 -6.297514 -8.105513 -14.291288 0.000000 0.000000 0.000000 12.045232 -10.747891 -0.319329 8.980249 0.328974 1.334986 8.769592 -0.111723 1.269017 0.000000 0.000000 0.000000 10.873933 -5.354786 -1.114186 7.641307 0.420344 0.520897 8.013273 -0.054546 0.445697 0.000000 0.000000 0.000000 10.315706 2.576267 -0.841288 7.454585 -0.885879 -0.856481 7.493777 0.069820 -0.629461 0.000000 0.000000 0.000000 9.595569 11.052511 -1.779725 7.149729 -1.640174 -2.442837 6.735634 0.285130 -2.061013 0.000000 0.000000 0.000000 0.000000 0.000000 0.000000 0.000000 0.000000 0.000000 -89.915115 0.122932 6.019510 -71.666039 19.630165 -6.565132 -1.219056 -9.026104 40.460899 1.979422 -23.272758 -16.073711 -20.250217 -29.967409 61.607464 8.881730 12.956780 -21.691633 6.651252 8.672641 -15.161868 0.000000 0.000000 0.000000 -17.220598 -5.495345 -0.180725 -11.013087 0.289965 -1.399754 -11.131052 -0.172644 -1.291013 0.000000 0.000000 0.000000 -16.567745 -0.507595 -0.956725 -10.901596 0.406747 -0.591736 -10.819224 -0.068205 -0.475306 0.000000 0.000000 0.000000 -18.727654 7.540881 -0.767391 -12.419400 -0.866681 0.850384 -12.395616 0.086167 0.660912 0.000000 0.000000 0.000000 -19.972719 15.960217 -1.162373 -12.991178 -1.541800 2.649461 -12.844465 0.349852 2.252515 0.000000 0.000000 0.000000 0.000000 0.000000 0.000000 0.000000 0.000000 0.000000 0.135552 -9.171224 11.032444 -0.048465 -0.638467 6.184568 -2.884258 -9.082157 17.690990 -0.794952 0.749941 -19.042097 0.000000 0.000000 0.000000 0.000000 0.000000 0.000000 0.000000 0.000000 0.000000 -1.551494 -6.339325 7.173227 0.057391 0.364991 8.525488 3.748168 -0.580776 16.983364 0.387711 -0.473188 -20.513033 0.000000 0.000000 0.000000 0.000000 0.000000 0.000000 0.000000 0.000000 0.000000 
0.116386 88.888832 2.896872 -0.292132 -0.356929 -7.391821 1.294573 -0.174066 6.686655 -0.924041 0.113478 2.653515 0.767214 -1.599905 1.645817 -0.871394 -0.150897 3.106526 1.271595 2.197307 3.083247 0.328964 2.861592 -3.794106 -1.050115 -0.609194 -18.402506 0.000000 0.000000 0.000000 92.891815 -0.452424 9.532285 65.024918 -32.356384 4.040514 -0.076408 13.069771 23.233330 6.612649 12.828082 -6.839433 19.867910 30.094484 62.071793 -8.435992 -12.076577 -20.435020 -6.297484 -8.090005 -14.274914 0.000000 0.000000 0.000000 12.021259 -10.741418 -0.371405 8.995552 0.330502 1.322396 8.799277 -0.108082 1.254738 0.000000 0.000000 0.000000 10.886091 -5.347280 -1.126009 7.672503 0.419444 0.515293 8.046146 -0.054126 0.441762 0.000000 0.000000 0.000000 10.348454 2.561073 -0.821582 7.528446 -0.884624 -0.849628 7.566186 0.067934 -0.622375 0.000000 0.000000 0.000000 9.582615 11.029678 -1.695046 7.160033 -1.640205 -2.435198 6.764729 0.281832 -2.045177 0.000000 0.000000 0.000000 0.000000 0.000000 0.000000 0.000000 0.000000 0.000000 -89.860435 0.121063 6.054356 -71.823219 19.802643 -6.568876 -1.211396 -9.044144 40.539753 2.188278 -23.024298 -16.106531 -20.237463 -29.974693 61.621651 8.859873 12.929233 -21.649323 6.635892 8.650986 -15.129652 0.000000 0.000000 0.000000 -17.111647 -5.538121 -0.286381 -11.089092 0.290034 -1.386753 -11.188284 -0.169960 -1.281377 0.000000 0.000000 0.000000 -16.468376 -0.535953 -1.031149 -10.981706 0.406337 -0.590341 -10.896585 -0.068714 -0.474819 0.000000 0.000000 0.000000 -18.692200 7.532382 -0.850537 -12.513131 -0.865961 0.850776 -12.469538 0.086108 0.660903 0.000000 0.000000 0.000000 -19.963072 15.960539 -1.249520 -13.043108 -1.542602 2.630767 -12.873783 0.347153 2.249115 0.000000 0.000000 0.000000 0.000000 0.000000 0.000000 0.000000 0.000000 0.000000 0.128800 -9.110855 11.129855 -0.048781 -0.640840 6.117051 -2.826295 -9.094276 17.715481 -0.799632 0.749441 -19.040522 0.000000 0.000000 0.000000 0.000000 0.000000 0.000000 0.000000 0.000000 0.000000 -1.532328 -6.275853 7.162552 0.056260 0.355535 8.602258 3.752700 -0.553731 16.988550 0.371541 -0.478455 -20.537960 0.000000 0.000000 0.000000 0.000000 0.000000 0.000000 0.000000 0.000000 0.000000 
0.121755 88.876999 2.899744 -0.305803 -0.409373 -7.476176 1.294047 -0.164087 6.696906 -0.906902 0.114328 2.638070 0.783997 -1.592514 1.706482 -0.860218 -0.125515 3.161209 1.220958 2.156902 3.039228 0.344436 2.824551 -3.770530 -1.052051 -0.629827 -18.378542 0.000000 0.000000 0.000000 92.790375 -0.456536 9.490720 65.118797 -32.287476 3.948810 -0.068722 13.084308 23.378780 6.595225 12.492017 -6.820575 19.873096 30.094065 62.062874 -8.442998 -12.098170 -20.463230 -6.303996 -8.097796 -14.293828 0.000000 0.000000 0.000000 12.059408 -10.759768 -0.387312 9.083131 0.333327 1.307166 8.894797 -0.104701 1.238646 0.000000 0.000000 0.000000 10.935383 -5.353820 -1.117259 7.759274 0.420226 0.508611 8.129157 -0.052759 0.435891 0.000000 0.000000 0.000000 10.389874 2.559764 -0.774639 7.619020 -0.885062 -0.844424 7.654033 0.066651 -0.616857 0.000000 0.000000 0.000000 9.575981 11.038117 -1.578276 7.193293 -1.640083 -2.437356 6.809954 0.282033 -2.045176 0.000000 0.000000 0.000000 0.000000 0.000000 0.000000 0.000000 0.000000 0.000000 -89.820084 0.124522 6.065836 -71.977135 19.835285 -6.588450 -1.172467 -9.060366 40.544338 2.227826 -22.838196 -15.955866 -20.241968 -29.977091 61.622147 8.855291 12.922820 -21.654470 6.633604 8.650316 -15.127574 0.000000 0.000000 0.000000 -17.085020 -5.569392 -0.279229 -11.130903 0.291174 -1.372696 -11.210299 -0.167812 -1.270462 0.000000 0.000000 0.000000 -16.435413 -0.551892 -1.018243 -11.029820 0.406394 -0.586106 -10.950223 -0.068785 -0.471118 0.000000 0.000000 0.000000 -18.728483 7.532351 -0.822318 -12.573622 -0.866221 0.853090 -12.529728 0.085639 0.660955 0.000000 0.000000 0.000000 -20.044806 15.961558 -1.241896 -13.099544 -1.541236 2.638230 -12.906451 0.351168 2.261993 0.000000 0.000000 0.000000 0.000000 0.000000 0.000000 0.000000 0.000000 0.000000 0.116200 -9.055194 11.236370 -0.048888 -0.639141 6.104302 -2.777872 -9.108498 17.738350 -0.804368 0.750777 -19.042015 0.000000 0.000000 0.000000 0.000000 0.000000 0.000000 0.000000 0.000000 0.000000 -1.521577 -6.235960 7.159968 0.055607 0.351943 8.708250 3.764187 -0.533149 16.974899 0.363393 -0.482613 -20.544346 0.000000 0.000000 0.000000 0.000000 0.000000 0.000000 0.000000 0.000000 0.000000 
0.128701 88.867523 2.908264 -0.321607 -0.458337 -7.562895 1.303981 -0.156126 6.699844 -0.899087 0.117111 2.621458 0.793154 -1.572526 1.769442 -0.854183 -0.101730 3.208276 1.149358 2.153086 3.057904 0.365694 2.810904 -3.724559 -1.045308 -0.644252 -18.387585 0.000000 0.000000 0.000000 92.721855 -0.453405 9.479847 65.285378 -32.126503 3.784521 -0.068655 13.171036 23.514286 6.604916 12.221363 -6.756848 19.888676 30.090509 62.044212 -8.458157 -12.140123 -20.518261 -6.318429 -8.121139 -14.329733 0.000000 0.000000 0.000000 12.174315 -10.791646 -0.375523 9.189238 0.341088 1.281568 9.006346 -0.096213 1.215223 0.000000 0.000000 0.000000 11.060377 -5.376121 -1.084175 7.864021 0.423944 0.497374 8.229239 -0.049245 0.426487 0.000000 0.000000 0.000000 10.512476 2.544091 -0.698672 7.722461 -0.890100 -0.830491 7.753563 0.062364 -0.605084 0.000000 0.000000 0.000000 9.640378 11.036947 -1.440637 7.249430 -1.653259 -2.408223 6.873580 0.271515 -2.020544 0.000000 0.000000 0.000000 0.000000 0.000000 0.000000 0.000000 0.000000 0.000000 -89.795250 0.117282 6.076334 -72.056190 19.835463 -6.562320 -1.143294 -9.083572 40.591084 2.148899 -22.735748 -15.778962 -20.237129 -29.977873 61.625393 8.857116 12.900793 -21.643984 6.630717 8.637852 -15.115393 0.000000 0.000000 0.000000 -17.055864 -5.588331 -0.234112 -11.112576 0.300601 -1.336953 -11.177527 -0.157446 -1.239593 0.000000 0.000000 0.000000 -16.402855 -0.561665 -0.968757 -11.013278 0.410198 -0.571907 -10.944111 -0.065579 -0.459193 0.000000 0.000000 0.000000 -18.746031 7.523370 -0.752574 -12.575592 -0.871890 0.840694 -12.526868 0.080964 0.650423 0.000000 0.000000 0.000000 -20.114155 15.944545 -1.197658 -13.106856 -1.555737 2.601871 -12.892918 0.340440 2.237562 0.000000 0.000000 0.000000 0.000000 0.000000 0.000000 0.000000 0.000000 0.000000 0.101670 -9.005668 11.338204 -0.049062 -0.636609 6.117985 -2.741158 -9.093202 17.748507 -0.805394 0.749693 -19.038208 0.000000 0.000000 0.000000 0.000000 0.000000 0.000000 0.000000 0.000000 0.000000 -1.515112 -6.218419 7.173606 0.055244 0.348285 8.802880 3.766772 -0.493556 16.964945 0.361083 -0.485093 -20.546278 0.000000 0.000000 0.000000 0.000000 0.000000 0.000000 0.000000 0.000000 0.000000 
